<svg xmlns="http://www.w3.org/2000/svg" viewBox="0 0 320 240" fill="none" role="img" aria-label="Parent communication">
  <rect width="320" height="240" rx="16" fill="#f7f5f0"/>
  <rect x="96" y="16" width="128" height="208" rx="20" fill="#0c1222" fill-opacity="0.92"/>
  <rect x="104" y="28" width="112" height="188" rx="14" fill="#fff"/>
  <rect x="120" y="44" width="80" height="8" rx="4" fill="#0e7268" fill-opacity="0.2"/>
  <rect x="120" y="60" width="56" height="6" rx="3" fill="#0c1222" fill-opacity="0.1"/>
  <rect x="120" y="80" width="80" height="48" rx="12" fill="#e8f3f1"/>
  <text x="128" y="100" fill="#0e7268" font-family="system-ui,sans-serif" font-size="9" font-weight="600">Fee reminder</text>
  <text x="128" y="114" fill="#0c1222" fill-opacity="0.6" font-family="system-ui,sans-serif" font-size="8">Semester 2 · Due Fri</text>
  <rect x="120" y="136" width="80" height="48" rx="12" fill="#f3efe6"/>
  <text x="128" y="156" fill="#0c1222" fill-opacity="0.7" font-family="system-ui,sans-serif" font-size="8">č­Mė 5sČ;</text>
  <text x="128" y="170" fill="#0c1222" fill-opacity="0.5" font-family="system-ui,sans-serif" font-size="7">Amharic draft ready</text>
  <rect x="120" y="192" width="80" height="16" rx="8" fill="#0e7268"/>
  <text x="134" y="203" fill="#fff" font-family="system-ui,sans-serif" font-size="8" font-weight="600">Review &amp; send</text>
  <circle cx="56" cy="120" r="28" fill="#e8f3f1" stroke="#0e7268" stroke-opacity="0.2" stroke-width="2"/>
  <circle cx="56" cy="108" r="10" fill="#0e7268" fill-opacity="0.3"/>
  <path d="M36 138c4-8 12-12 20-12s16 4 20 12" stroke="#0e7268" stroke-opacity="0.4" stroke-width="3" stroke-linecap="round"/>
  <rect x="248" y="100" width="56" height="40" rx="10" fill="#0e7268" fill-opacity="0.12"/>
  <path d="M260 120h32M260 128h24" stroke="#0e7268" stroke-opacity="0.4" stroke-width="2" stroke-linecap="round"/>
</svg>
