<svg xmlns="http://www.w3.org/2000/svg" viewBox="0 0 320 240" fill="none" role="img" aria-label="Report cards and grades">
  <rect width="320" height="240" rx="16" fill="#f7f5f0"/>
  <rect x="40" y="20" width="240" height="200" rx="10" fill="#fff" stroke="#0c1222" stroke-opacity="0.1" transform="rotate(-2 160 120)"/>
  <rect x="56" y="36" width="208" height="168" rx="6" fill="#fff" stroke="#0e7268" stroke-opacity="0.2"/>
  <rect x="72" y="52" width="80" height="10" rx="5" fill="#0e7268"/>
  <rect x="72" y="68" width="120" height="7" rx="3.5" fill="#0c1222" fill-opacity="0.12"/>
  <rect x="72" y="88" width="176" height="1" fill="#0c1222" fill-opacity="0.08"/>
  <g font-family="system-ui,sans-serif" font-size="10">
    <text x="72" y="108" fill="#0c1222" fill-opacity="0.5">Mathematics</text>
    <text x="220" y="108" fill="#0e7268" font-weight="700">A</text>
    <text x="72" y="128" fill="#0c1222" fill-opacity="0.5">English</text>
    <text x="220" y="128" fill="#0e7268" font-weight="700">A-</text>
    <text x="72" y="148" fill="#0c1222" fill-opacity="0.5">Science</text>
    <text x="220" y="148" fill="#0e7268" font-weight="700">B+</text>
    <text x="72" y="168" fill="#0c1222" fill-opacity="0.5">Amharic</text>
    <text x="220" y="168" fill="#0e7268" font-weight="700">A</text>
  </g>
  <rect x="72" y="178" width="176" height="1" fill="#0c1222" fill-opacity="0.08"/>
  <rect x="72" y="188" width="60" height="8" rx="4" fill="#0c1222" fill-opacity="0.15"/>
  <rect x="168" y="184" width="80" height="16" rx="8" fill="#e8f3f1"/>
  <text x="182" y="195" fill="#0e7268" font-family="system-ui,sans-serif" font-size="10" font-weight="700">GPA 3.8</text>
  <circle cx="248" cy="48" r="18" fill="#0e7268" fill-opacity="0.12"/>
  <path d="M242 48l4 4 8-8" stroke="#0e7268" stroke-width="2" stroke-linecap="round" stroke-linejoin="round"/>
</svg>
