<svg xmlns="http://www.w3.org/2000/svg" viewBox="0 0 320 240" fill="none" role="img" aria-label="Classroom and teacher portal">
  <rect width="320" height="240" rx="16" fill="#f7f5f0"/>
  <rect x="16" y="24" width="288" height="120" rx="10" fill="#e8f3f1"/>
  <rect x="32" y="40" width="160" height="88" rx="6" fill="#fff" stroke="#0e7268" stroke-opacity="0.25"/>
  <rect x="44" y="52" width="80" height="6" rx="3" fill="#0e7268" fill-opacity="0.3"/>
  <rect x="44" y="64" width="120" height="4" rx="2" fill="#0c1222" fill-opacity="0.1"/>
  <rect x="44" y="74" width="100" height="4" rx="2" fill="#0c1222" fill-opacity="0.1"/>
  <rect x="44" y="84" width="110" height="4" rx="2" fill="#0c1222" fill-opacity="0.1"/>
  <circle cx="220" cy="84" r="24" fill="#0e7268" fill-opacity="0.15"/>
  <circle cx="220" cy="72" r="10" fill="#0e7268" fill-opacity="0.35"/>
  <path d="M200 98c6-10 16-14 20-14s14 4 20 14" stroke="#0e7268" stroke-opacity="0.35" stroke-width="4" stroke-linecap="round"/>
  <g>
    <rect x="48" y="160" width="56" height="56" rx="28" fill="#0e7268" fill-opacity="0.12"/>
    <circle cx="76" cy="178" r="10" fill="#0e7268" fill-opacity="0.35"/>
    <path d="M58 204c6-8 14-12 18-12s12 4 18 12" stroke="#0e7268" stroke-opacity="0.3" stroke-width="3" stroke-linecap="round"/>
  </g>
  <g>
    <rect x="132" y="168" width="56" height="48" rx="28" fill="#f3efe6" stroke="#0c1222" stroke-opacity="0.06"/>
    <circle cx="160" cy="182" r="9" fill="#0c1222" fill-opacity="0.2"/>
    <path d="M144 206c5-7 12-10 16-10s11 3 16 10" stroke="#0c1222" stroke-opacity="0.2" stroke-width="3" stroke-linecap="round"/>
  </g>
  <g>
    <rect x="216" y="160" width="56" height="56" rx="28" fill="#0e7268" fill-opacity="0.12"/>
    <circle cx="244" cy="178" r="10" fill="#0e7268" fill-opacity="0.35"/>
    <path d="M226 204c6-8 14-12 18-12s12 4 18 12" stroke="#0e7268" stroke-opacity="0.3" stroke-width="3" stroke-linecap="round"/>
  </g>
  <rect x="16" y="152" width="288" height="64" rx="10" fill="#fff" stroke="#0c1222" stroke-opacity="0.06"/>
  <rect x="28" y="164" width="72" height="8" rx="4" fill="#0e7268" fill-opacity="0.2"/>
  <rect x="28" y="178" width="120" height="6" rx="3" fill="#0c1222" fill-opacity="0.1"/>
  <rect x="28" y="190" width="96" height="6" rx="3" fill="#0c1222" fill-opacity="0.08"/>
  <rect x="220" y="168" width="72" height="24" rx="8" fill="#0e7268"/>
  <text x="232" y="184" fill="#fff" font-family="system-ui,sans-serif" font-size="10" font-weight="600">Mark entry</text>
</svg>
